<svg width="56" height="56" viewBox="0 0 56 56" fill="none" xmlns="http://www.w3.org/2000/svg">
<path d="M17.0703 51H18.5039V48.7266H20.75V51H22.1836V45.3633H20.75V47.5742H18.5039V45.3633H17.0703V51ZM25.3906 51.1016C25.8568 51.1016 26.2552 51.0117 26.5859 50.832C26.9167 50.6497 27.1693 50.3893 27.3438 50.0508C27.5208 49.7096 27.6094 49.3021 27.6094 48.8281V48.8203C27.6094 48.349 27.5195 47.944 27.3398 47.6055C27.1628 47.2669 26.9076 47.0065 26.5742 46.8242C26.2435 46.6419 25.849 46.5508 25.3906 46.5508C24.9349 46.5508 24.5417 46.6432 24.2109 46.8281C23.8802 47.0104 23.625 47.2708 23.4453 47.6094C23.2656 47.9479 23.1758 48.3516 23.1758 48.8203V48.8281C23.1758 49.3021 23.263 49.7096 23.4375 50.0508C23.6146 50.3893 23.8685 50.6497 24.1992 50.832C24.5326 51.0117 24.9297 51.1016 25.3906 51.1016ZM25.3906 50.0508C25.224 50.0508 25.0807 50.0026 24.9609 49.9062C24.8411 49.8099 24.75 49.6706 24.6875 49.4883C24.625 49.306 24.5938 49.0859 24.5938 48.8281V48.8203C24.5938 48.5677 24.625 48.3516 24.6875 48.1719C24.7526 47.9896 24.8451 47.849 24.9648 47.75C25.0846 47.651 25.2266 47.6016 25.3906 47.6016C25.5599 47.6016 25.7031 47.651 25.8203 47.75C25.9375 47.849 26.0273 47.9896 26.0898 48.1719C26.1549 48.3516 26.1875 48.5677 26.1875 48.8203V48.8281C26.1875 49.0833 26.1562 49.3021 26.0938 49.4844C26.0312 49.6667 25.9401 49.8073 25.8203 49.9062C25.7031 50.0026 25.5599 50.0508 25.3906 50.0508ZM28.4648 51H29.8516V48.4141C29.8516 48.2682 29.8789 48.1406 29.9336 48.0312C29.9883 47.9193 30.0638 47.8333 30.1602 47.7734C30.2565 47.7109 30.3685 47.6797 30.4961 47.6797C30.6966 47.6797 30.8503 47.7383 30.957 47.8555C31.0638 47.9701 31.1172 48.1367 31.1172 48.3555V51H32.5039V48.3906C32.5039 48.2474 32.5286 48.1237 32.5781 48.0195C32.6302 47.9128 32.7044 47.8294 32.8008 47.7695C32.8971 47.7096 33.0104 47.6797 33.1406 47.6797C33.3516 47.6797 33.5078 47.7383 33.6094 47.8555C33.7135 47.9727 33.7656 48.1471 33.7656 48.3789V51H35.1523V48.0273C35.1523 47.7279 35.0938 47.4688 34.9766 47.25C34.8594 47.0286 34.694 46.8568 34.4805 46.7344C34.2695 46.612 34.0208 46.5508 33.7344 46.5508C33.5312 46.5508 33.3411 46.5846 33.1641 46.6523C32.9896 46.7201 32.8385 46.8151 32.7109 46.9375C32.5859 47.0599 32.4922 47.2044 32.4297 47.3711H32.3555C32.3008 47.194 32.2161 47.0456 32.1016 46.9258C31.987 46.8034 31.849 46.7109 31.6875 46.6484C31.526 46.5833 31.3464 46.5508 31.1484 46.5508C30.862 46.5508 30.6094 46.6198 30.3906 46.7578C30.1719 46.8958 30.0169 47.0911 29.9258 47.3438H29.8516V46.6523H28.4648V51ZM38.1758 51.1016C38.5247 51.1016 38.8229 51.0573 39.0703 50.9688C39.3177 50.8802 39.5208 50.7669 39.6797 50.6289C39.8411 50.4909 39.9648 50.3451 40.0508 50.1914C40.1393 50.0352 40.1979 49.8932 40.2266 49.7656L40.2383 49.7188L38.9727 49.7227L38.9609 49.7383C38.9427 49.7747 38.9023 49.8229 38.8398 49.8828C38.7799 49.9427 38.6966 49.9974 38.5898 50.0469C38.4857 50.0938 38.3568 50.1172 38.2031 50.1172C38.0234 50.1172 37.8685 50.0781 37.7383 50C37.6107 49.9193 37.513 49.8034 37.4453 49.6523C37.3776 49.5013 37.3438 49.3203 37.3438 49.1094V48.5508C37.3438 48.3346 37.3776 48.151 37.4453 48C37.5156 47.849 37.612 47.7344 37.7344 47.6562C37.8568 47.5755 37.9987 47.5352 38.1602 47.5352C38.3216 47.5352 38.4622 47.5742 38.582 47.6523C38.7044 47.7305 38.7995 47.8451 38.8672 47.9961C38.9349 48.1445 38.9688 48.3294 38.9688 48.5508V49.1016L39.6094 48.332H36.668V49.1367H40.2656V48.7383C40.2656 48.2956 40.1784 47.9102 40.0039 47.582C39.8294 47.2539 39.582 47 39.2617 46.8203C38.9414 46.6406 38.5625 46.5508 38.125 46.5508C37.6875 46.5508 37.3086 46.6432 36.9883 46.8281C36.668 47.0104 36.4193 47.2721 36.2422 47.6133C36.0677 47.9518 35.9805 48.3555 35.9805 48.8242V48.8281C35.9805 49.2995 36.069 49.7044 36.2461 50.043C36.4232 50.3815 36.6745 50.6432 37 50.8281C37.3281 51.0104 37.7201 51.1016 38.1758 51.1016Z" fill="#1C1C1E"/>
<path d="M39 25C39 23.3431 37.652 21.981 36.0072 22.1801C34.4104 22.3735 32.8452 22.7213 31.3463 23.2179C28.9198 24.022 26.715 25.2006 24.8579 26.6863C23.0007 28.172 21.5275 29.9359 20.5224 31.8771C19.9956 32.8945 19.6028 33.9502 19.3483 35.0271C18.9671 36.6395 20.3431 38 22 38L36 38C37.6569 38 39 36.6569 39 35L39 25Z" fill="#E76C49"/>
<mask id="path-3-inside-1_43_1732" fill="white">
<path fill-rule="evenodd" clip-rule="evenodd" d="M26.5584 6.52621C27.6782 5.57541 29.3219 5.57541 30.4417 6.52622L45.7732 19.5433C47.9017 21.3505 46.6237 24.8302 43.8315 24.8302H42.8659V39.1224C42.8659 40.7793 41.5228 42.1224 39.8659 42.1224H31.1604V30.8528C31.1604 30.0244 30.4888 29.3528 29.6604 29.3528H26.2756C25.4472 29.3528 24.7756 30.0244 24.7756 30.8528V42.1224H16.0701C14.4132 42.1224 13.0701 40.7793 13.0701 39.1224V24.8288C10.3466 24.7481 9.12364 21.3291 11.2269 19.5433L26.5584 6.52621Z"/>
</mask>
<path d="M30.4417 6.52622L32.3834 4.23932L32.3834 4.23932L30.4417 6.52622ZM26.5584 6.52621L24.6167 4.23932V4.23932L26.5584 6.52621ZM45.7732 19.5433L43.8316 21.8302L45.7732 19.5433ZM42.8659 24.8302V21.8302H39.8659V24.8302H42.8659ZM31.1604 42.1224H28.1604V45.1224H31.1604V42.1224ZM24.7756 42.1224V45.1224H27.7756V42.1224H24.7756ZM13.0701 24.8288H16.0701V21.9163L13.1589 21.8301L13.0701 24.8288ZM11.2269 19.5433L9.28524 17.2564H9.28524L11.2269 19.5433ZM32.3834 4.23932C30.1437 2.33771 26.8564 2.33771 24.6167 4.23932L28.5001 8.81311V8.81311L32.3834 4.23932ZM47.7149 17.2564L32.3834 4.23932L28.5001 8.81311L43.8316 21.8302L47.7149 17.2564ZM43.8315 27.8302C49.4159 27.8302 51.9719 20.8708 47.7149 17.2564L43.8316 21.8302C43.8455 21.8421 43.8524 21.8498 43.8546 21.8523C43.8568 21.8548 43.8558 21.8541 43.8533 21.85C43.8508 21.8459 43.8479 21.8404 43.8452 21.8338C43.8426 21.8272 43.8407 21.821 43.8394 21.8157C43.8369 21.805 43.8378 21.8011 43.8375 21.8051C43.8373 21.807 43.837 21.8104 43.836 21.8151C43.835 21.8197 43.8335 21.8248 43.8316 21.8302C43.8296 21.8356 43.8273 21.8405 43.8251 21.8446C43.8229 21.8488 43.821 21.8516 43.8198 21.8532C43.8174 21.8565 43.8193 21.8529 43.8282 21.8464C43.8326 21.8431 43.838 21.8396 43.8443 21.8364C43.8506 21.8331 43.8564 21.8307 43.8609 21.8292C43.8655 21.8277 43.8667 21.8278 43.8634 21.8283C43.8601 21.8288 43.8499 21.8302 43.8315 21.8302V27.8302ZM42.8659 27.8302H43.8315V21.8302H42.8659V27.8302ZM45.8659 39.1224V24.8302H39.8659V39.1224H45.8659ZM39.8659 45.1224C43.1796 45.1224 45.8659 42.4361 45.8659 39.1224H39.8659V45.1224ZM31.1604 45.1224H39.8659V39.1224H31.1604V45.1224ZM28.1604 30.8528V42.1224H34.1604V30.8528H28.1604ZM29.6604 32.3528C28.832 32.3528 28.1604 31.6812 28.1604 30.8528H34.1604C34.1604 28.3675 32.1457 26.3528 29.6604 26.3528V32.3528ZM26.2756 32.3528H29.6604V26.3528H26.2756V32.3528ZM27.7756 30.8528C27.7756 31.6812 27.104 32.3528 26.2756 32.3528V26.3528C23.7903 26.3528 21.7756 28.3675 21.7756 30.8528H27.7756ZM27.7756 42.1224V30.8528H21.7756V42.1224H27.7756ZM16.0701 45.1224H24.7756V39.1224H16.0701V45.1224ZM10.0701 39.1224C10.0701 42.4361 12.7564 45.1224 16.0701 45.1224V39.1224H16.0701H10.0701ZM10.0701 24.8288V39.1224H16.0701V24.8288H10.0701ZM9.28524 17.2564C5.07395 20.832 7.52762 27.6659 12.9812 27.8274L13.1589 21.8301C13.1442 21.8296 13.1367 21.8283 13.1353 21.828C13.1339 21.8278 13.1363 21.8282 13.1415 21.83C13.1466 21.8319 13.1525 21.8345 13.1587 21.8379C13.1647 21.8412 13.1698 21.8447 13.1737 21.8477C13.1816 21.8538 13.1827 21.8566 13.1799 21.8526C13.1786 21.8507 13.1766 21.8476 13.1743 21.8433C13.1721 21.839 13.1699 21.834 13.1681 21.8287C13.1662 21.8234 13.1648 21.8184 13.1639 21.8139C13.1631 21.8095 13.1627 21.8064 13.1626 21.8047C13.1624 21.8012 13.1632 21.8056 13.1605 21.8164C13.1592 21.8218 13.1573 21.828 13.1546 21.8344C13.1519 21.8409 13.1491 21.8463 13.1467 21.8502C13.1443 21.8542 13.1434 21.8548 13.1456 21.8522C13.1479 21.8496 13.1548 21.842 13.1686 21.8302L9.28524 17.2564ZM24.6167 4.23932L9.28524 17.2564L13.1686 21.8302L28.5001 8.81311L24.6167 4.23932Z" fill="#1C1C1E" mask="url(#path-3-inside-1_43_1732)"/>
</svg>
