<svg width="56" height="56" viewBox="0 0 56 56" fill="none" xmlns="http://www.w3.org/2000/svg">
<path d="M13.1172 51.1523C13.612 51.1523 14.0365 51.0755 14.3906 50.9219C14.7448 50.7656 15.0156 50.5469 15.2031 50.2656C15.3932 49.9818 15.4883 49.6484 15.4883 49.2656V49.2617C15.4883 48.806 15.3477 48.4505 15.0664 48.1953C14.7852 47.9375 14.3438 47.75 13.7422 47.6328L13.1602 47.5195C12.8555 47.4622 12.6341 47.3867 12.4961 47.293C12.3607 47.1966 12.293 47.0677 12.293 46.9062V46.9023C12.293 46.7904 12.3255 46.6927 12.3906 46.6094C12.4583 46.5234 12.5534 46.457 12.6758 46.4102C12.7982 46.3607 12.944 46.3359 13.1133 46.3359C13.2878 46.3359 13.4414 46.3607 13.5742 46.4102C13.707 46.4596 13.8125 46.5286 13.8906 46.6172C13.9714 46.7031 14.0221 46.806 14.043 46.9258L14.0508 46.9688H15.3789L15.375 46.9219C15.3464 46.5885 15.2422 46.2943 15.0625 46.0391C14.8828 45.7812 14.6289 45.5794 14.3008 45.4336C13.9753 45.2852 13.5768 45.2109 13.1055 45.2109C12.6732 45.2109 12.2891 45.2865 11.9531 45.4375C11.6172 45.5859 11.3529 45.7969 11.1602 46.0703C10.9674 46.3411 10.8698 46.6602 10.8672 47.0273V47.0312C10.8672 47.4714 11.0026 47.8307 11.2734 48.1094C11.5469 48.388 11.9805 48.5859 12.5742 48.7031L13.1562 48.8164C13.487 48.8815 13.7214 48.957 13.8594 49.043C13.9974 49.1289 14.0664 49.2513 14.0664 49.4102V49.4141C14.0664 49.5312 14.0273 49.6367 13.9492 49.7305C13.8737 49.8242 13.7669 49.8971 13.6289 49.9492C13.4909 50.0013 13.3281 50.0273 13.1406 50.0273C12.9505 50.0273 12.7826 50.0013 12.6367 49.9492C12.4909 49.8971 12.375 49.8268 12.2891 49.7383C12.2031 49.6471 12.1536 49.5443 12.1406 49.4297L12.1367 49.3945H10.7656L10.7695 49.4648C10.7904 49.8138 10.8971 50.1146 11.0898 50.3672C11.2852 50.6172 11.5547 50.8112 11.8984 50.9492C12.2422 51.0846 12.6484 51.1523 13.1172 51.1523ZM18.4297 51.1016C18.7786 51.1016 19.0768 51.0573 19.3242 50.9688C19.5716 50.8802 19.7747 50.7669 19.9336 50.6289C20.0951 50.4909 20.2188 50.3451 20.3047 50.1914C20.3932 50.0352 20.4518 49.8932 20.4805 49.7656L20.4922 49.7188L19.2266 49.7227L19.2148 49.7383C19.1966 49.7747 19.1562 49.8229 19.0938 49.8828C19.0339 49.9427 18.9505 49.9974 18.8438 50.0469C18.7396 50.0938 18.6107 50.1172 18.457 50.1172C18.2773 50.1172 18.1224 50.0781 17.9922 50C17.8646 49.9193 17.7669 49.8034 17.6992 49.6523C17.6315 49.5013 17.5977 49.3203 17.5977 49.1094V48.5508C17.5977 48.3346 17.6315 48.151 17.6992 48C17.7695 47.849 17.8659 47.7344 17.9883 47.6562C18.1107 47.5755 18.2526 47.5352 18.4141 47.5352C18.5755 47.5352 18.7161 47.5742 18.8359 47.6523C18.9583 47.7305 19.0534 47.8451 19.1211 47.9961C19.1888 48.1445 19.2227 48.3294 19.2227 48.5508V49.1016L19.8633 48.332H16.9219V49.1367H20.5195V48.7383C20.5195 48.2956 20.4323 47.9102 20.2578 47.582C20.0833 47.2539 19.8359 47 19.5156 46.8203C19.1953 46.6406 18.8164 46.5508 18.3789 46.5508C17.9414 46.5508 17.5625 46.6432 17.2422 46.8281C16.9219 47.0104 16.6732 47.2721 16.4961 47.6133C16.3216 47.9518 16.2344 48.3555 16.2344 48.8242V48.8281C16.2344 49.2995 16.3229 49.7044 16.5 50.043C16.6771 50.3815 16.9284 50.6432 17.2539 50.8281C17.582 51.0104 17.974 51.1016 18.4297 51.1016ZM23.3242 51.0078C23.457 51.0078 23.582 51.0026 23.6992 50.9922C23.819 50.9818 23.9154 50.9688 23.9883 50.9531V49.9609C23.9388 49.9661 23.888 49.9714 23.8359 49.9766C23.7839 49.9792 23.7188 49.9805 23.6406 49.9805C23.4609 49.9805 23.3281 49.9401 23.2422 49.8594C23.1589 49.7786 23.1172 49.6576 23.1172 49.4961V47.668H23.9883V46.6523H23.1172V45.6562H21.7266V46.6523H21.0625V47.668H21.7266V49.8086C21.7266 50.2331 21.8503 50.5391 22.0977 50.7266C22.3451 50.9141 22.7539 51.0078 23.3242 51.0078ZM26.9023 51.0078C27.0352 51.0078 27.1602 51.0026 27.2773 50.9922C27.3971 50.9818 27.4935 50.9688 27.5664 50.9531V49.9609C27.5169 49.9661 27.4661 49.9714 27.4141 49.9766C27.362 49.9792 27.2969 49.9805 27.2188 49.9805C27.0391 49.9805 26.9062 49.9401 26.8203 49.8594C26.737 49.7786 26.6953 49.6576 26.6953 49.4961V47.668H27.5664V46.6523H26.6953V45.6562H25.3047V46.6523H24.6406V47.668H25.3047V49.8086C25.3047 50.2331 25.4284 50.5391 25.6758 50.7266C25.9232 50.9141 26.332 51.0078 26.9023 51.0078ZM28.4805 51H29.8672V46.6523H28.4805V51ZM29.1758 46.0742C29.3789 46.0742 29.5521 46.0039 29.6953 45.8633C29.8385 45.7227 29.9102 45.5521 29.9102 45.3516C29.9102 45.151 29.8385 44.9805 29.6953 44.8398C29.5521 44.6992 29.3789 44.6289 29.1758 44.6289C28.9753 44.6289 28.8021 44.6992 28.6562 44.8398C28.513 44.9805 28.4414 45.151 28.4414 45.3516C28.4414 45.5521 28.513 45.7227 28.6562 45.8633C28.8021 46.0039 28.9753 46.0742 29.1758 46.0742ZM30.9453 51H32.332V48.5156C32.332 48.349 32.3607 48.2031 32.418 48.0781C32.4753 47.9531 32.5573 47.8555 32.6641 47.7852C32.7708 47.7148 32.8984 47.6797 33.0469 47.6797C33.2812 47.6797 33.4531 47.7513 33.5625 47.8945C33.6745 48.0352 33.7305 48.237 33.7305 48.5V51H35.1172V48.1914C35.1172 47.668 34.9922 47.2643 34.7422 46.9805C34.4948 46.694 34.1302 46.5508 33.6484 46.5508C33.3411 46.5508 33.0807 46.6224 32.8672 46.7656C32.6562 46.9062 32.5026 47.0951 32.4062 47.332H32.332V46.6523H30.9453V51ZM38.1328 52.5273C38.5964 52.5273 38.9961 52.4583 39.332 52.3203C39.6706 52.1823 39.931 51.9857 40.1133 51.7305C40.2982 51.4779 40.3906 51.1771 40.3906 50.8281V46.6523H39.0039V47.3594H38.9492C38.8763 47.1953 38.7786 47.056 38.6562 46.9414C38.5339 46.8268 38.3906 46.7396 38.2266 46.6797C38.0625 46.6172 37.8815 46.5859 37.6836 46.5859C37.3164 46.5859 37.0013 46.6758 36.7383 46.8555C36.4753 47.0326 36.2734 47.2826 36.1328 47.6055C35.9922 47.9284 35.9219 48.3073 35.9219 48.7422V48.75C35.9219 49.1667 35.9922 49.5312 36.1328 49.8438C36.2734 50.1536 36.474 50.3958 36.7344 50.5703C36.9948 50.7422 37.3034 50.8281 37.6602 50.8281C37.8633 50.8281 38.0469 50.8034 38.2109 50.7539C38.375 50.7018 38.5182 50.625 38.6406 50.5234C38.763 50.4193 38.8607 50.293 38.9336 50.1445H39.0078V50.918C39.0078 51.1367 38.9349 51.3047 38.7891 51.4219C38.6432 51.5417 38.4375 51.6016 38.1719 51.6016C37.9427 51.6016 37.7643 51.569 37.6367 51.5039C37.5117 51.4388 37.4349 51.3542 37.4062 51.25L37.3984 51.2266H36.0469V51.2539C36.0781 51.5039 36.1771 51.7253 36.3438 51.918C36.5104 52.1107 36.7435 52.2604 37.043 52.3672C37.3424 52.474 37.7057 52.5273 38.1328 52.5273ZM38.1719 49.8086C37.9974 49.8086 37.8477 49.7643 37.7227 49.6758C37.6003 49.5872 37.5052 49.4635 37.4375 49.3047C37.3724 49.1458 37.3398 48.9596 37.3398 48.7461V48.7383C37.3398 48.5247 37.3724 48.3398 37.4375 48.1836C37.5052 48.0247 37.6003 47.9023 37.7227 47.8164C37.8477 47.7279 37.9974 47.6836 38.1719 47.6836C38.349 47.6836 38.5 47.7279 38.625 47.8164C38.7526 47.9023 38.849 48.0247 38.9141 48.1836C38.9818 48.3424 39.0156 48.5286 39.0156 48.7422V48.75C39.0156 48.9609 38.9818 49.1458 38.9141 49.3047C38.849 49.4635 38.7526 49.5872 38.625 49.6758C38.5 49.7643 38.349 49.8086 38.1719 49.8086ZM43.3203 51.1016C43.7135 51.1016 44.0599 51.0417 44.3594 50.9219C44.6589 50.7995 44.8919 50.6276 45.0586 50.4062C45.2279 50.1823 45.3125 49.9206 45.3125 49.6211V49.6172C45.3125 49.2917 45.207 49.0339 44.9961 48.8438C44.7852 48.651 44.4544 48.5091 44.0039 48.418L43.2539 48.2656C43.0482 48.224 42.9049 48.1732 42.8242 48.1133C42.7461 48.0534 42.707 47.974 42.707 47.875V47.8672C42.707 47.7865 42.7305 47.7174 42.7773 47.6602C42.8268 47.6029 42.8945 47.5586 42.9805 47.5273C43.069 47.4961 43.1693 47.4805 43.2812 47.4805C43.4714 47.4805 43.6198 47.5221 43.7266 47.6055C43.8333 47.6862 43.8984 47.7721 43.9219 47.8633L43.9297 47.8906H45.1992V47.8711C45.1914 47.6367 45.1159 47.4206 44.9727 47.2227C44.8294 47.0221 44.6159 46.8607 44.332 46.7383C44.0508 46.6133 43.7005 46.5508 43.2812 46.5508C42.8932 46.5508 42.556 46.6081 42.2695 46.7227C41.9831 46.8372 41.7617 47 41.6055 47.2109C41.4492 47.4193 41.3711 47.6693 41.3711 47.9609V47.9648C41.3711 48.2956 41.4779 48.569 41.6914 48.7852C41.9049 48.9987 42.2214 49.1484 42.6406 49.2344L43.3906 49.3867C43.5885 49.4258 43.7279 49.4766 43.8086 49.5391C43.8919 49.6016 43.9336 49.6836 43.9336 49.7852V49.7891C43.9336 49.8672 43.9089 49.9349 43.8594 49.9922C43.8099 50.0469 43.7396 50.0898 43.6484 50.1211C43.5573 50.1523 43.4492 50.168 43.3242 50.168C43.1237 50.168 42.9674 50.1302 42.8555 50.0547C42.7435 49.9792 42.6667 49.8867 42.625 49.7773L42.6172 49.7539H41.2695V49.7773C41.2982 50.0299 41.3919 50.2565 41.5508 50.457C41.7122 50.6576 41.9401 50.8151 42.2344 50.9297C42.5286 51.0443 42.8906 51.1016 43.3203 51.1016Z" fill="#1C1C1E"/>
<path d="M38 29C40.7614 29 43.075 26.6975 42.1354 24.1008C41.9859 23.6876 41.8173 23.2794 41.6298 22.8771C40.7252 20.9359 39.3994 19.172 37.7279 17.6863C36.0565 16.2006 34.0722 15.022 31.8883 14.2179C31.254 13.9844 30.6064 13.7837 29.9489 13.6166C27.2726 12.9363 25 15.2386 25 18L25 24C25 26.7614 27.2386 29 30 29H38Z" fill="#E76C49"/>
<mask id="path-3-inside-1_43_1730" fill="white">
<path fill-rule="evenodd" clip-rule="evenodd" d="M15.6002 38.6366C15.1781 39.9779 15.7441 41.4323 16.9618 42.1354L19.1462 43.3965C20.3639 44.0996 21.9066 43.8625 22.857 42.8263L26.1585 39.227C27.3474 37.9309 29.3912 37.9309 30.5802 39.227L33.8817 42.8263C34.8321 43.8625 36.3748 44.0996 37.5925 43.3965L39.7769 42.1354C40.9946 41.4323 41.5606 39.9779 41.1385 38.6366L39.6298 33.8435C39.0999 32.1599 40.1309 30.3849 41.8558 30.0109L46.6356 28.9746C48.0155 28.6755 49 27.4547 49 26.0428V23.7702C49 22.3583 48.0155 21.1375 46.6356 20.8383L41.8516 19.8011C40.1266 19.4272 39.0957 17.6522 39.6256 15.9686L41.1385 11.1619C41.5606 9.82072 40.9946 8.36624 39.7769 7.66319L37.5925 6.40203C36.3748 5.69899 34.8321 5.93602 33.8817 6.97223L30.5802 10.5716C29.3912 11.8677 27.3474 11.8677 26.1585 10.5716L22.857 6.97222C21.9065 5.93602 20.3639 5.69898 19.1462 6.40203L16.9618 7.66319C15.7441 8.36624 15.1781 9.82071 15.6002 11.1619L17.1298 16.0216C17.6597 17.7052 16.6287 19.4802 14.9038 19.8542L10.3644 20.8383C8.98451 21.1375 8 22.3583 8 23.7702V26.0428C8 27.4547 8.98451 28.6755 10.3644 28.9746L14.8996 29.9579C16.6245 30.3319 17.6554 32.1069 17.1255 33.7905L15.6002 38.6366ZM28 19.7986C25.2386 19.7986 23 22.0371 23 24.7986C23 27.56 25.2386 29.7986 28 29.7986C30.7614 29.7986 33 27.56 33 24.7986C33 22.0371 30.7614 19.7986 28 19.7986Z"/>
</mask>
<path d="M16.9618 42.1354L18.4618 39.5373L18.4618 39.5373L16.9618 42.1354ZM15.6002 38.6366L12.7386 37.7359L12.7386 37.7359L15.6002 38.6366ZM19.1462 43.3965L17.6462 45.9946L19.1462 43.3965ZM22.857 42.8263L25.0678 44.8542L25.0678 44.8542L22.857 42.8263ZM26.1585 39.227L23.9477 37.1991L23.9477 37.1991L26.1585 39.227ZM30.5802 39.227L28.3693 41.2549H28.3693L30.5802 39.227ZM33.8817 42.8263L36.0925 40.7985H36.0925L33.8817 42.8263ZM37.5925 43.3965L39.0925 45.9946H39.0925L37.5925 43.3965ZM39.7769 42.1354L38.2769 39.5373L38.2769 39.5373L39.7769 42.1354ZM41.1385 38.6366L44.0001 37.7359L44.0001 37.7359L41.1385 38.6366ZM39.6298 33.8435L36.7682 34.7442V34.7442L39.6298 33.8435ZM41.8558 30.0109L41.2202 27.079L41.8558 30.0109ZM46.6356 28.9746L47.2713 31.9065L47.2713 31.9065L46.6356 28.9746ZM46.6356 20.8383L47.2713 17.9064L46.6356 20.8383ZM41.8516 19.8011L42.4872 16.8693L41.8516 19.8011ZM39.6256 15.9686L42.4872 16.8693V16.8693L39.6256 15.9686ZM41.1385 11.1619L38.2769 10.2613L38.2769 10.2613L41.1385 11.1619ZM39.7769 7.66319L41.2769 5.06512V5.06512L39.7769 7.66319ZM37.5925 6.40203L36.0925 9.00011L36.0925 9.00011L37.5925 6.40203ZM33.8817 6.97223L36.0925 9.00011V9.00011L33.8817 6.97223ZM30.5802 10.5716L28.3693 8.54368L28.3693 8.54368L30.5802 10.5716ZM26.1585 10.5716L28.3693 8.54368V8.54368L26.1585 10.5716ZM22.857 6.97222L25.0678 4.94434L22.857 6.97222ZM19.1462 6.40203L20.6462 9.00011V9.00011L19.1462 6.40203ZM16.9618 7.66319L18.4618 10.2613H18.4618L16.9618 7.66319ZM15.6002 11.1619L18.4618 10.2613V10.2613L15.6002 11.1619ZM17.1298 16.0216L19.9914 15.1209L17.1298 16.0216ZM14.9038 19.8542L15.5394 22.7861H15.5394L14.9038 19.8542ZM10.3644 20.8383L11 23.7702L11 23.7702L10.3644 20.8383ZM10.3644 28.9746L11 26.0428H11L10.3644 28.9746ZM14.8996 29.9579L15.5352 27.026L14.8996 29.9579ZM17.1255 33.7905L19.9871 34.6911V34.6911L17.1255 33.7905ZM18.4618 39.5373L18.4618 39.5373L12.7386 37.7359C11.8943 40.4184 13.0264 43.3274 15.4618 44.7335L18.4618 39.5373ZM20.6462 40.7985L18.4618 39.5373L15.4618 44.7335L17.6462 45.9946L20.6462 40.7985ZM20.6462 40.7985L20.6462 40.7985L17.6462 45.9946C20.0816 47.4007 23.1669 46.9266 25.0678 44.8542L20.6462 40.7985ZM23.9477 37.1991L20.6462 40.7985L25.0678 44.8542L28.3693 41.2549L23.9477 37.1991ZM32.791 37.1991C30.4131 34.6068 26.3255 34.6068 23.9477 37.1991L28.3693 41.2549H28.3693L32.791 37.1991ZM36.0925 40.7985L32.791 37.1991L28.3693 41.2549L31.6708 44.8542L36.0925 40.7985ZM36.0925 40.7985V40.7985L31.6708 44.8542C33.5718 46.9266 36.657 47.4007 39.0925 45.9946L36.0925 40.7985ZM38.2769 39.5373L36.0925 40.7985L39.0925 45.9946L41.2769 44.7335L38.2769 39.5373ZM38.2769 39.5373H38.2769L41.2769 44.7335C43.7123 43.3274 44.8444 40.4184 44.0001 37.7359L38.2769 39.5373ZM36.7682 34.7442L38.2769 39.5373L44.0001 37.7359L42.4914 32.9428L36.7682 34.7442ZM41.2202 27.079C37.7703 27.827 35.7084 31.377 36.7682 34.7442L42.4914 32.9428V32.9428L41.2202 27.079ZM46 26.0428L41.2202 27.079L42.4914 32.9428L47.2713 31.9065L46 26.0428ZM46 26.0428L46 26.0428L47.2713 31.9065C50.031 31.3082 52 28.8666 52 26.0428H46ZM46 23.7702V26.0428H52V23.7702H46ZM46 23.7702H52C52 20.9464 50.031 18.5048 47.2713 17.9064L46 23.7702ZM41.2159 22.733L46 23.7702L47.2713 17.9064L42.4872 16.8693L41.2159 22.733ZM36.764 15.0679C35.7042 18.4351 37.766 21.9851 41.2159 22.733L42.4872 16.8693V16.8693L36.764 15.0679ZM38.2769 10.2613L36.764 15.0679L42.4872 16.8693L44.0001 12.0626L38.2769 10.2613ZM38.2769 10.2613L38.2769 10.2613L44.0001 12.0626C44.8444 9.38017 43.7123 6.47121 41.2769 5.06512L38.2769 10.2613ZM36.0925 9.00011L38.2769 10.2613L41.2769 5.06512L39.0925 3.80396L36.0925 9.00011ZM36.0925 9.00011V9.00011L39.0925 3.80396C36.6571 2.39786 33.5718 2.87193 31.6709 4.94434L36.0925 9.00011ZM32.791 12.5994L36.0925 9.00011L31.6709 4.94434L28.3693 8.54368L32.791 12.5994ZM23.9477 12.5994C26.3255 15.1918 30.4132 15.1918 32.791 12.5994L28.3693 8.54368V8.54368L23.9477 12.5994ZM20.6462 9.00011L23.9477 12.5994L28.3693 8.54368L25.0678 4.94434L20.6462 9.00011ZM20.6462 9.00011H20.6462L25.0678 4.94434C23.1669 2.87193 20.0816 2.39786 17.6462 3.80395L20.6462 9.00011ZM18.4618 10.2613L20.6462 9.00011L17.6462 3.80395L15.4618 5.06511L18.4618 10.2613ZM18.4618 10.2613H18.4618L15.4618 5.06511C13.0264 6.47121 11.8943 9.38016 12.7386 12.0626L18.4618 10.2613ZM19.9914 15.1209L18.4618 10.2613L12.7386 12.0626L14.2682 16.9223L19.9914 15.1209ZM15.5394 22.7861C18.9893 22.0381 21.0512 18.4881 19.9914 15.1209L14.2682 16.9223H14.2682L15.5394 22.7861ZM11 23.7702L15.5394 22.7861L14.2682 16.9223L9.72872 17.9064L11 23.7702ZM11 23.7702L11 23.7702L9.72872 17.9064C6.96902 18.5048 5 20.9464 5 23.7702H11ZM11 26.0428V23.7702H5V26.0428H11ZM11 26.0428L11 26.0428H5C5 28.8666 6.96902 31.3082 9.72872 31.9065L11 26.0428ZM15.5352 27.026L11 26.0428L9.72872 31.9065L14.2639 32.8898L15.5352 27.026ZM19.9871 34.6911C21.0469 31.3239 18.9851 27.7739 15.5352 27.026L14.2639 32.8898L14.2639 32.8898L19.9871 34.6911ZM18.4618 39.5373L19.9871 34.6911L14.2639 32.8898L12.7386 37.7359L18.4618 39.5373ZM26 24.7986C26 23.694 26.8954 22.7986 28 22.7986V16.7986C23.5817 16.7986 20 20.3803 20 24.7986H26ZM28 26.7986C26.8954 26.7986 26 25.9031 26 24.7986H20C20 29.2168 23.5817 32.7986 28 32.7986V26.7986ZM30 24.7986C30 25.9031 29.1046 26.7986 28 26.7986V32.7986C32.4183 32.7986 36 29.2168 36 24.7986H30ZM28 22.7986C29.1046 22.7986 30 23.694 30 24.7986H36C36 20.3803 32.4183 16.7986 28 16.7986V22.7986Z" fill="#1C1C1E" mask="url(#path-3-inside-1_43_1730)"/>
</svg>
