<svg width="56" height="56" viewBox="0 0 56 56" fill="none" xmlns="http://www.w3.org/2000/svg">
<path d="M5.09766 51H6.53125V49.0312H7.20703C7.21745 49.0312 7.22786 49.0312 7.23828 49.0312C7.2513 49.0312 7.26302 49.0312 7.27344 49.0312L8.23828 51H9.84766L8.72266 48.8164C9.02995 48.681 9.26693 48.4688 9.43359 48.1797C9.60026 47.8906 9.68359 47.5742 9.68359 47.2305V47.2227C9.68359 46.8346 9.60156 46.5026 9.4375 46.2266C9.27344 45.9479 9.03255 45.7344 8.71484 45.5859C8.39974 45.4375 8.01042 45.3633 7.54688 45.3633H5.09766V51ZM6.53125 48.0469V46.4453H7.37891C7.63672 46.4453 7.84115 46.5195 7.99219 46.668C8.14323 46.8138 8.21875 47.0052 8.21875 47.2422V47.25C8.21875 47.4948 8.14453 47.6888 7.99609 47.832C7.84766 47.9753 7.64453 48.0469 7.38672 48.0469H6.53125ZM12.5391 51.1016C12.888 51.1016 13.1862 51.0573 13.4336 50.9688C13.681 50.8802 13.8841 50.7669 14.043 50.6289C14.2044 50.4909 14.3281 50.3451 14.4141 50.1914C14.5026 50.0352 14.5612 49.8932 14.5898 49.7656L14.6016 49.7188L13.3359 49.7227L13.3242 49.7383C13.306 49.7747 13.2656 49.8229 13.2031 49.8828C13.1432 49.9427 13.0599 49.9974 12.9531 50.0469C12.849 50.0938 12.7201 50.1172 12.5664 50.1172C12.3867 50.1172 12.2318 50.0781 12.1016 50C11.974 49.9193 11.8763 49.8034 11.8086 49.6523C11.7409 49.5013 11.707 49.3203 11.707 49.1094V48.5508C11.707 48.3346 11.7409 48.151 11.8086 48C11.8789 47.849 11.9753 47.7344 12.0977 47.6562C12.2201 47.5755 12.362 47.5352 12.5234 47.5352C12.6849 47.5352 12.8255 47.5742 12.9453 47.6523C13.0677 47.7305 13.1628 47.8451 13.2305 47.9961C13.2982 48.1445 13.332 48.3294 13.332 48.5508V49.1016L13.9727 48.332H11.0312V49.1367H14.6289V48.7383C14.6289 48.2956 14.5417 47.9102 14.3672 47.582C14.1927 47.2539 13.9453 47 13.625 46.8203C13.3047 46.6406 12.9258 46.5508 12.4883 46.5508C12.0508 46.5508 11.6719 46.6432 11.3516 46.8281C11.0312 47.0104 10.7826 47.2721 10.6055 47.6133C10.431 47.9518 10.3438 48.3555 10.3438 48.8242V48.8281C10.3438 49.2995 10.4323 49.7044 10.6094 50.043C10.7865 50.3815 11.0378 50.6432 11.3633 50.8281C11.6914 51.0104 12.0833 51.1016 12.5391 51.1016ZM17.4805 51.1016C17.8737 51.1016 18.2135 51.0339 18.5 50.8984C18.7865 50.763 19.013 50.5716 19.1797 50.3242C19.349 50.0742 19.4492 49.7773 19.4805 49.4336L19.4766 49.418L18.2148 49.4219L18.207 49.4258C18.1732 49.6341 18.0964 49.7904 17.9766 49.8945C17.8594 49.9987 17.6966 50.0508 17.4883 50.0508C17.3112 50.0508 17.1628 50.0065 17.043 49.918C16.9258 49.8268 16.8372 49.6901 16.7773 49.5078C16.7174 49.3255 16.6875 49.0977 16.6875 48.8242V48.8164C16.6875 48.543 16.7174 48.3177 16.7773 48.1406C16.8372 47.9609 16.9258 47.8268 17.043 47.7383C17.1602 47.6471 17.3086 47.6016 17.4883 47.6016C17.6992 47.6016 17.8646 47.6589 17.9844 47.7734C18.1068 47.888 18.1823 48.0495 18.2109 48.2578L18.2148 48.2656H19.4766L19.4844 48.2578C19.4531 47.901 19.3555 47.5951 19.1914 47.3398C19.0273 47.0846 18.8008 46.8893 18.5117 46.7539C18.2253 46.6185 17.8815 46.5508 17.4805 46.5508C17.0013 46.5508 16.5977 46.638 16.2695 46.8125C15.944 46.9844 15.6979 47.2383 15.5312 47.5742C15.3646 47.9102 15.2812 48.3242 15.2812 48.8164V48.8242C15.2812 49.3164 15.3646 49.7318 15.5312 50.0703C15.7005 50.4089 15.9479 50.6654 16.2734 50.8398C16.6016 51.0143 17.0039 51.1016 17.4805 51.1016ZM22.3164 51.1016C22.7826 51.1016 23.181 51.0117 23.5117 50.832C23.8424 50.6497 24.0951 50.3893 24.2695 50.0508C24.4466 49.7096 24.5352 49.3021 24.5352 48.8281V48.8203C24.5352 48.349 24.4453 47.944 24.2656 47.6055C24.0885 47.2669 23.8333 47.0065 23.5 46.8242C23.1693 46.6419 22.7747 46.5508 22.3164 46.5508C21.8607 46.5508 21.4674 46.6432 21.1367 46.8281C20.806 47.0104 20.5508 47.2708 20.3711 47.6094C20.1914 47.9479 20.1016 48.3516 20.1016 48.8203V48.8281C20.1016 49.3021 20.1888 49.7096 20.3633 50.0508C20.5404 50.3893 20.7943 50.6497 21.125 50.832C21.4583 51.0117 21.8555 51.1016 22.3164 51.1016ZM22.3164 50.0508C22.1497 50.0508 22.0065 50.0026 21.8867 49.9062C21.7669 49.8099 21.6758 49.6706 21.6133 49.4883C21.5508 49.306 21.5195 49.0859 21.5195 48.8281V48.8203C21.5195 48.5677 21.5508 48.3516 21.6133 48.1719C21.6784 47.9896 21.7708 47.849 21.8906 47.75C22.0104 47.651 22.1523 47.6016 22.3164 47.6016C22.4857 47.6016 22.6289 47.651 22.7461 47.75C22.8633 47.849 22.9531 47.9896 23.0156 48.1719C23.0807 48.3516 23.1133 48.5677 23.1133 48.8203V48.8281C23.1133 49.0833 23.082 49.3021 23.0195 49.4844C22.957 49.6667 22.8659 49.8073 22.7461 49.9062C22.6289 50.0026 22.4857 50.0508 22.3164 50.0508ZM25.3906 51H26.7773V48.7031C26.7773 48.5 26.8177 48.3281 26.8984 48.1875C26.9818 48.0443 27.1003 47.9362 27.2539 47.8633C27.4076 47.7878 27.5924 47.75 27.8086 47.75C27.9049 47.75 28.0026 47.7565 28.1016 47.7695C28.2005 47.7826 28.2956 47.8021 28.3867 47.8281V46.6562C28.319 46.6328 28.2448 46.6159 28.1641 46.6055C28.0833 46.5924 28 46.5859 27.9141 46.5859C27.638 46.5859 27.4076 46.6523 27.2227 46.7852C27.0404 46.918 26.9167 47.1042 26.8516 47.3438H26.7773V46.6523H25.3906V51ZM30.5391 51.0664C30.849 51.0664 31.1133 51.0026 31.332 50.875C31.5508 50.7474 31.7109 50.5677 31.8125 50.3359H31.8867V51H33.2734V45.0195H31.8867V47.3516H31.8125C31.7083 47.112 31.5443 46.9245 31.3203 46.7891C31.099 46.6536 30.8385 46.5859 30.5391 46.5859C30.1719 46.5859 29.8594 46.6745 29.6016 46.8516C29.3438 47.026 29.1458 47.2799 29.0078 47.6133C28.8724 47.9466 28.8047 48.349 28.8047 48.8203V48.8281C28.8047 49.2969 28.8737 49.6979 29.0117 50.0312C29.1523 50.3646 29.3529 50.6211 29.6133 50.8008C29.8737 50.9779 30.1823 51.0664 30.5391 51.0664ZM31.0508 49.9375C30.8789 49.9375 30.7305 49.8932 30.6055 49.8047C30.4805 49.7161 30.3828 49.5898 30.3125 49.4258C30.2448 49.2591 30.2109 49.0599 30.2109 48.8281V48.8203C30.2109 48.5938 30.2448 48.3984 30.3125 48.2344C30.3828 48.0677 30.4805 47.9401 30.6055 47.8516C30.7331 47.7604 30.8815 47.7148 31.0508 47.7148C31.2227 47.7148 31.3711 47.7591 31.4961 47.8477C31.6237 47.9362 31.7227 48.0638 31.793 48.2305C31.8633 48.3945 31.8984 48.5924 31.8984 48.8242V48.832C31.8984 49.0612 31.8633 49.2591 31.793 49.4258C31.7253 49.5898 31.6276 49.7161 31.5 49.8047C31.375 49.8932 31.2253 49.9375 31.0508 49.9375ZM34.3945 51H35.7812V46.6523H34.3945V51ZM35.0898 46.0742C35.293 46.0742 35.4661 46.0039 35.6094 45.8633C35.7526 45.7227 35.8242 45.5521 35.8242 45.3516C35.8242 45.151 35.7526 44.9805 35.6094 44.8398C35.4661 44.6992 35.293 44.6289 35.0898 44.6289C34.8893 44.6289 34.7161 44.6992 34.5703 44.8398C34.4271 44.9805 34.3555 45.151 34.3555 45.3516C34.3555 45.5521 34.4271 45.7227 34.5703 45.8633C34.7161 46.0039 34.8893 46.0742 35.0898 46.0742ZM36.8594 51H38.2461V48.5156C38.2461 48.349 38.2747 48.2031 38.332 48.0781C38.3893 47.9531 38.4714 47.8555 38.5781 47.7852C38.6849 47.7148 38.8125 47.6797 38.9609 47.6797C39.1953 47.6797 39.3672 47.7513 39.4766 47.8945C39.5885 48.0352 39.6445 48.237 39.6445 48.5V51H41.0312V48.1914C41.0312 47.668 40.9062 47.2643 40.6562 46.9805C40.4089 46.694 40.0443 46.5508 39.5625 46.5508C39.2552 46.5508 38.9948 46.6224 38.7812 46.7656C38.5703 46.9062 38.4167 47.0951 38.3203 47.332H38.2461V46.6523H36.8594V51ZM44.0469 52.5273C44.5104 52.5273 44.9102 52.4583 45.2461 52.3203C45.5846 52.1823 45.8451 51.9857 46.0273 51.7305C46.2122 51.4779 46.3047 51.1771 46.3047 50.8281V46.6523H44.918V47.3594H44.8633C44.7904 47.1953 44.6927 47.056 44.5703 46.9414C44.4479 46.8268 44.3047 46.7396 44.1406 46.6797C43.9766 46.6172 43.7956 46.5859 43.5977 46.5859C43.2305 46.5859 42.9154 46.6758 42.6523 46.8555C42.3893 47.0326 42.1875 47.2826 42.0469 47.6055C41.9062 47.9284 41.8359 48.3073 41.8359 48.7422V48.75C41.8359 49.1667 41.9062 49.5312 42.0469 49.8438C42.1875 50.1536 42.388 50.3958 42.6484 50.5703C42.9089 50.7422 43.2174 50.8281 43.5742 50.8281C43.7773 50.8281 43.9609 50.8034 44.125 50.7539C44.2891 50.7018 44.4323 50.625 44.5547 50.5234C44.6771 50.4193 44.7747 50.293 44.8477 50.1445H44.9219V50.918C44.9219 51.1367 44.849 51.3047 44.7031 51.4219C44.5573 51.5417 44.3516 51.6016 44.0859 51.6016C43.8568 51.6016 43.6784 51.569 43.5508 51.5039C43.4258 51.4388 43.349 51.3542 43.3203 51.25L43.3125 51.2266H41.9609V51.2539C41.9922 51.5039 42.0911 51.7253 42.2578 51.918C42.4245 52.1107 42.6576 52.2604 42.957 52.3672C43.2565 52.474 43.6198 52.5273 44.0469 52.5273ZM44.0859 49.8086C43.9115 49.8086 43.7617 49.7643 43.6367 49.6758C43.5143 49.5872 43.4193 49.4635 43.3516 49.3047C43.2865 49.1458 43.2539 48.9596 43.2539 48.7461V48.7383C43.2539 48.5247 43.2865 48.3398 43.3516 48.1836C43.4193 48.0247 43.5143 47.9023 43.6367 47.8164C43.7617 47.7279 43.9115 47.6836 44.0859 47.6836C44.263 47.6836 44.4141 47.7279 44.5391 47.8164C44.6667 47.9023 44.763 48.0247 44.8281 48.1836C44.8958 48.3424 44.9297 48.5286 44.9297 48.7422V48.75C44.9297 48.9609 44.8958 49.1458 44.8281 49.3047C44.763 49.4635 44.6667 49.5872 44.5391 49.6758C44.4141 49.7643 44.263 49.8086 44.0859 49.8086ZM49.2344 51.1016C49.6276 51.1016 49.974 51.0417 50.2734 50.9219C50.5729 50.7995 50.806 50.6276 50.9727 50.4062C51.1419 50.1823 51.2266 49.9206 51.2266 49.6211V49.6172C51.2266 49.2917 51.1211 49.0339 50.9102 48.8438C50.6992 48.651 50.3685 48.5091 49.918 48.418L49.168 48.2656C48.9622 48.224 48.819 48.1732 48.7383 48.1133C48.6602 48.0534 48.6211 47.974 48.6211 47.875V47.8672C48.6211 47.7865 48.6445 47.7174 48.6914 47.6602C48.7409 47.6029 48.8086 47.5586 48.8945 47.5273C48.9831 47.4961 49.0833 47.4805 49.1953 47.4805C49.3854 47.4805 49.5339 47.5221 49.6406 47.6055C49.7474 47.6862 49.8125 47.7721 49.8359 47.8633L49.8438 47.8906H51.1133V47.8711C51.1055 47.6367 51.0299 47.4206 50.8867 47.2227C50.7435 47.0221 50.5299 46.8607 50.2461 46.7383C49.9648 46.6133 49.6146 46.5508 49.1953 46.5508C48.8073 46.5508 48.4701 46.6081 48.1836 46.7227C47.8971 46.8372 47.6758 47 47.5195 47.2109C47.3633 47.4193 47.2852 47.6693 47.2852 47.9609V47.9648C47.2852 48.2956 47.3919 48.569 47.6055 48.7852C47.819 48.9987 48.1354 49.1484 48.5547 49.2344L49.3047 49.3867C49.5026 49.4258 49.6419 49.4766 49.7227 49.5391C49.806 49.6016 49.8477 49.6836 49.8477 49.7852V49.7891C49.8477 49.8672 49.8229 49.9349 49.7734 49.9922C49.724 50.0469 49.6536 50.0898 49.5625 50.1211C49.4714 50.1523 49.3633 50.168 49.2383 50.168C49.0378 50.168 48.8815 50.1302 48.7695 50.0547C48.6576 49.9792 48.5807 49.8867 48.5391 49.7773L48.5312 49.7539H47.1836V49.7773C47.2122 50.0299 47.306 50.2565 47.4648 50.457C47.6263 50.6576 47.8542 50.8151 48.1484 50.9297C48.4427 51.0443 48.8047 51.1016 49.2344 51.1016Z" fill="#8E8E93"/>
<path d="M29 39C30.6569 39 32.0125 37.6548 31.8826 36.003C31.7157 33.8811 31.3719 31.7998 30.8582 29.8156C30.1044 26.9038 28.9995 24.258 27.6066 22.0294C26.2137 19.8008 24.5601 18.033 22.7403 16.8269C21.838 16.229 20.9037 15.7749 19.9509 15.469C18.3733 14.9625 17 16.3431 17 18L17 36C17 37.6569 18.3431 39 20 39H29Z" fill="#E1917A"/>
<rect x="14.5" y="7.5" width="27" height="34" rx="1.5" stroke="#8E8E93" stroke-width="3"/>
<rect x="11" y="19" width="8" height="3" rx="1.5" fill="#8E8E93"/>
<rect x="37" y="7" width="13" height="3" rx="1.5" transform="rotate(90 37 7)" fill="#8E8E93"/>
<rect x="11" y="25" width="8" height="3" rx="1.5" fill="#8E8E93"/>
<rect x="11" y="31" width="8" height="3" rx="1.5" fill="#8E8E93"/>
</svg>
