<svg width="56" height="56" viewBox="0 0 56 56" fill="none" xmlns="http://www.w3.org/2000/svg">
<path d="M20 32C18.3431 32 16.9676 30.6389 17.3569 29.0284C17.7128 27.556 18.3327 26.1127 19.2075 24.729C20.6649 22.4238 22.801 20.3293 25.4939 18.565C28.1868 16.8007 31.3837 15.4011 34.9022 14.4463C37.4938 13.743 40.2225 13.2911 43.0023 13.1018C44.6553 12.9892 46 14.3431 46 16L46 29C46 30.6569 44.6569 32 43 32L20 32Z" fill="#E76C49"/>
<path d="M7.5 10.83C7.5 9.95059 7.50121 9.38275 7.53707 8.95083C7.57145 8.53687 7.62976 8.38385 7.66888 8.30854C7.81119 8.03457 8.03457 7.81119 8.30854 7.66888C8.38385 7.62976 8.53687 7.57145 8.95083 7.53707C9.38275 7.50121 9.95059 7.5 10.83 7.5H46.17C47.0494 7.5 47.6172 7.50121 48.0492 7.53707C48.4631 7.57145 48.6161 7.62976 48.6915 7.66888C48.9654 7.81119 49.1888 8.03457 49.3311 8.30854C49.3702 8.38386 49.4285 8.53687 49.4629 8.95083C49.4988 9.38275 49.5 9.95059 49.5 10.83V32.17C49.5 33.0494 49.4988 33.6173 49.4629 34.0492C49.4285 34.4631 49.3702 34.6161 49.3311 34.6915C49.1888 34.9654 48.9654 35.1888 48.6915 35.3311C48.6161 35.3702 48.4631 35.4285 48.0492 35.4629C47.6172 35.4988 47.0494 35.5 46.17 35.5H21.744C21.7175 35.5 21.6912 35.5 21.6651 35.5C21.2741 35.4997 20.9291 35.4995 20.5834 35.5531C20.2918 35.5983 20.0052 35.6721 19.728 35.7734C19.3995 35.8935 19.0975 36.0604 18.7553 36.2494C18.7324 36.262 18.7094 36.2748 18.6861 36.2876L12.28 39.822C11.1347 40.4539 10.362 40.8786 9.76162 41.1442C9.1555 41.4124 8.93339 41.4187 8.86264 41.4122C8.41559 41.3711 8.01046 41.1319 7.75851 40.7604C7.71863 40.7016 7.6169 40.504 7.55887 39.8438C7.50138 39.1898 7.5 38.3081 7.5 37V10.83Z" stroke="#1C1C1E" stroke-width="3"/>
<rect x="13" y="16" width="13" height="3" rx="1.5" fill="#1C1C1E"/>
<rect x="13" y="23" width="21" height="3" rx="1.5" fill="#1C1C1E"/>
<path d="M13.5 51.1523C13.9844 51.1523 14.4102 51.0612 14.7773 50.8789C15.1471 50.6966 15.4414 50.4453 15.6602 50.125C15.8815 49.8047 16.0078 49.4349 16.0391 49.0156L16.043 48.9492H14.6602L14.6523 48.9961C14.6211 49.1888 14.5534 49.3581 14.4492 49.5039C14.3477 49.6497 14.2161 49.763 14.0547 49.8438C13.8958 49.9245 13.7122 49.9648 13.5039 49.9648C13.2409 49.9648 13.0143 49.8932 12.8242 49.75C12.6367 49.6042 12.4909 49.3984 12.3867 49.1328C12.2852 48.8646 12.2344 48.5469 12.2344 48.1797V48.1719C12.2344 47.8047 12.2852 47.4896 12.3867 47.2266C12.4909 46.9609 12.6367 46.7565 12.8242 46.6133C13.0143 46.4701 13.2396 46.3984 13.5 46.3984C13.7057 46.3984 13.8906 46.4414 14.0547 46.5273C14.2188 46.6133 14.3529 46.7318 14.457 46.8828C14.5612 47.0339 14.6263 47.207 14.6523 47.4023L14.6562 47.4375H16.0391L16.0352 47.3672C16.0091 46.9505 15.8841 46.5807 15.6602 46.2578C15.4362 45.9323 15.138 45.6771 14.7656 45.4922C14.3958 45.3047 13.974 45.2109 13.5 45.2109C12.9349 45.2109 12.4492 45.3307 12.043 45.5703C11.6367 45.8099 11.3229 46.151 11.1016 46.5938C10.8828 47.0365 10.7734 47.5638 10.7734 48.1758V48.1836C10.7734 48.7956 10.8828 49.3242 11.1016 49.7695C11.3229 50.2122 11.6367 50.5534 12.043 50.793C12.4518 51.0326 12.9375 51.1523 13.5 51.1523ZM16.9883 51H18.375V48.5156C18.375 48.349 18.4036 48.2031 18.4609 48.0781C18.5182 47.9531 18.6003 47.8555 18.707 47.7852C18.8138 47.7148 18.9414 47.6797 19.0898 47.6797C19.3242 47.6797 19.4961 47.7513 19.6055 47.8945C19.7174 48.0352 19.7734 48.237 19.7734 48.5V51H21.1602V48.1914C21.1602 47.8424 21.1042 47.5469 20.9922 47.3047C20.8802 47.0599 20.7148 46.8737 20.4961 46.7461C20.2799 46.6159 20.0117 46.5508 19.6914 46.5508C19.3841 46.5508 19.1237 46.6224 18.9102 46.7656C18.6992 46.9062 18.5456 47.0951 18.4492 47.332H18.375V45.0195H16.9883V51ZM23.375 51.0664C23.5599 51.0664 23.7318 51.0417 23.8906 50.9922C24.0521 50.9427 24.1914 50.8724 24.3086 50.7812C24.4284 50.6901 24.5208 50.5833 24.5859 50.4609H24.6602V51H26.0195V48.0352C26.0195 47.7227 25.9466 47.4557 25.8008 47.2344C25.6549 47.013 25.4414 46.8438 25.1602 46.7266C24.8815 46.6094 24.5404 46.5508 24.1367 46.5508C23.7461 46.5508 23.4049 46.6068 23.1133 46.7188C22.8216 46.8281 22.5911 46.9818 22.4219 47.1797C22.2552 47.3776 22.1589 47.6107 22.1328 47.8789L22.1289 47.9258H23.3828L23.3906 47.9062C23.4323 47.7995 23.5078 47.7161 23.6172 47.6562C23.7292 47.5964 23.8763 47.5664 24.0586 47.5664C24.2487 47.5664 24.3958 47.6081 24.5 47.6914C24.6068 47.7721 24.6602 47.8867 24.6602 48.0352V49.4375C24.6602 49.5625 24.625 49.6758 24.5547 49.7773C24.487 49.8763 24.3945 49.9557 24.2773 50.0156C24.1628 50.0729 24.0326 50.1016 23.8867 50.1016C23.7122 50.1016 23.5716 50.0612 23.4648 49.9805C23.3581 49.8997 23.3047 49.7917 23.3047 49.6562V49.6484C23.3047 49.5182 23.3581 49.4141 23.4648 49.3359C23.5716 49.2578 23.7266 49.2122 23.9297 49.1992L25.3398 49.1094V48.332L23.7109 48.4297C23.151 48.4635 22.7214 48.5938 22.4219 48.8203C22.1224 49.0443 21.9727 49.3529 21.9727 49.7461V49.7539C21.9727 50.0169 22.0312 50.2474 22.1484 50.4453C22.2682 50.6406 22.4336 50.793 22.6445 50.9023C22.8555 51.0117 23.099 51.0664 23.375 51.0664ZM29.0156 51.0078C29.1484 51.0078 29.2734 51.0026 29.3906 50.9922C29.5104 50.9818 29.6068 50.9688 29.6797 50.9531V49.9609C29.6302 49.9661 29.5794 49.9714 29.5273 49.9766C29.4753 49.9792 29.4102 49.9805 29.332 49.9805C29.1523 49.9805 29.0195 49.9401 28.9336 49.8594C28.8503 49.7786 28.8086 49.6576 28.8086 49.4961V47.668H29.6797V46.6523H28.8086V45.6562H27.418V46.6523H26.7539V47.668H27.418V49.8086C27.418 50.2331 27.5417 50.5391 27.7891 50.7266C28.0365 50.9141 28.4453 51.0078 29.0156 51.0078ZM32.5938 51.0078C32.7266 51.0078 32.8516 51.0026 32.9688 50.9922C33.0885 50.9818 33.1849 50.9688 33.2578 50.9531V49.9609C33.2083 49.9661 33.1576 49.9714 33.1055 49.9766C33.0534 49.9792 32.9883 49.9805 32.9102 49.9805C32.7305 49.9805 32.5977 49.9401 32.5117 49.8594C32.4284 49.7786 32.3867 49.6576 32.3867 49.4961V47.668H33.2578V46.6523H32.3867V45.6562H30.9961V46.6523H30.332V47.668H30.9961V49.8086C30.9961 50.2331 31.1198 50.5391 31.3672 50.7266C31.6146 50.9141 32.0234 51.0078 32.5938 51.0078ZM34.1719 51H35.5586V46.6523H34.1719V51ZM34.8672 46.0742C35.0703 46.0742 35.2435 46.0039 35.3867 45.8633C35.5299 45.7227 35.6016 45.5521 35.6016 45.3516C35.6016 45.151 35.5299 44.9805 35.3867 44.8398C35.2435 44.6992 35.0703 44.6289 34.8672 44.6289C34.6667 44.6289 34.4935 44.6992 34.3477 44.8398C34.2044 44.9805 34.1328 45.151 34.1328 45.3516C34.1328 45.5521 34.2044 45.7227 34.3477 45.8633C34.4935 46.0039 34.6667 46.0742 34.8672 46.0742ZM36.6367 51H38.0234V48.5156C38.0234 48.349 38.0521 48.2031 38.1094 48.0781C38.1667 47.9531 38.2487 47.8555 38.3555 47.7852C38.4622 47.7148 38.5898 47.6797 38.7383 47.6797C38.9727 47.6797 39.1445 47.7513 39.2539 47.8945C39.3659 48.0352 39.4219 48.237 39.4219 48.5V51H40.8086V48.1914C40.8086 47.668 40.6836 47.2643 40.4336 46.9805C40.1862 46.694 39.8216 46.5508 39.3398 46.5508C39.0326 46.5508 38.7721 46.6224 38.5586 46.7656C38.3477 46.9062 38.194 47.0951 38.0977 47.332H38.0234V46.6523H36.6367V51ZM43.8242 52.5273C44.2878 52.5273 44.6875 52.4583 45.0234 52.3203C45.362 52.1823 45.6224 51.9857 45.8047 51.7305C45.9896 51.4779 46.082 51.1771 46.082 50.8281V46.6523H44.6953V47.3594H44.6406C44.5677 47.1953 44.4701 47.056 44.3477 46.9414C44.2253 46.8268 44.082 46.7396 43.918 46.6797C43.7539 46.6172 43.5729 46.5859 43.375 46.5859C43.0078 46.5859 42.6927 46.6758 42.4297 46.8555C42.1667 47.0326 41.9648 47.2826 41.8242 47.6055C41.6836 47.9284 41.6133 48.3073 41.6133 48.7422V48.75C41.6133 49.1667 41.6836 49.5312 41.8242 49.8438C41.9648 50.1536 42.1654 50.3958 42.4258 50.5703C42.6862 50.7422 42.9948 50.8281 43.3516 50.8281C43.5547 50.8281 43.7383 50.8034 43.9023 50.7539C44.0664 50.7018 44.2096 50.625 44.332 50.5234C44.4544 50.4193 44.5521 50.293 44.625 50.1445H44.6992V50.918C44.6992 51.1367 44.6263 51.3047 44.4805 51.4219C44.3346 51.5417 44.1289 51.6016 43.8633 51.6016C43.6341 51.6016 43.4557 51.569 43.3281 51.5039C43.2031 51.4388 43.1263 51.3542 43.0977 51.25L43.0898 51.2266H41.7383V51.2539C41.7695 51.5039 41.8685 51.7253 42.0352 51.918C42.2018 52.1107 42.4349 52.2604 42.7344 52.3672C43.0339 52.474 43.3971 52.5273 43.8242 52.5273ZM43.8633 49.8086C43.6888 49.8086 43.5391 49.7643 43.4141 49.6758C43.2917 49.5872 43.1966 49.4635 43.1289 49.3047C43.0638 49.1458 43.0312 48.9596 43.0312 48.7461V48.7383C43.0312 48.5247 43.0638 48.3398 43.1289 48.1836C43.1966 48.0247 43.2917 47.9023 43.4141 47.8164C43.5391 47.7279 43.6888 47.6836 43.8633 47.6836C44.0404 47.6836 44.1914 47.7279 44.3164 47.8164C44.444 47.9023 44.5404 48.0247 44.6055 48.1836C44.6732 48.3424 44.707 48.5286 44.707 48.7422V48.75C44.707 48.9609 44.6732 49.1458 44.6055 49.3047C44.5404 49.4635 44.444 49.5872 44.3164 49.6758C44.1914 49.7643 44.0404 49.8086 43.8633 49.8086Z" fill="#1C1C1E"/>
</svg>
